<?xml version="1.0" standalone="no"?>
<!DOCTYPE svg PUBLIC "-//W3C//DTD SVG 20010904//EN"
 "http://www.w3.org/TR/2001/REC-SVG-20010904/DTD/svg10.dtd">
<svg version="1.0" xmlns="http://www.w3.org/2000/svg"
 width="1042.000000pt" height="1186.000000pt" viewBox="0 0 1042.000000 1186.000000"
 preserveAspectRatio="xMidYMid meet">
<metadata>
Created by potrace 1.16, written by Peter Selinger 2001-2019
</metadata>
<g transform="translate(0.000000,1186.000000) scale(0.100000,-0.100000)"
fill="#000000" stroke="none">
<path d="M1498 10863 l-3 -858 -65 0 -65 0 -3 853 -2 852 -590 0 -590 0 0
-5755 0 -5755 590 0 590 0 0 3399 0 3398 61 7 c34 3 65 3 70 0 5 -3 9 -1411 9
-3410 l0 -3404 4355 0 4355 0 0 5765 0 5765 -4355 0 -4355 0 -2 -857z m-160
-15 l-3 -843 -202 -3 -203 -2 0 -626 c0 -621 0 -626 -20 -621 -11 3 -20 3 -20
1 0 -9 40 -84 45 -84 3 0 14 18 25 40 l20 40 -20 0 c-20 0 -20 5 -20 620 l0
620 200 0 200 0 0 -655 c0 -511 -3 -657 -12 -665 -13 -11 -168 -100 -175 -100
-2 0 -3 7 -3 15 0 8 -4 15 -8 15 -12 0 -54 -59 -48 -68 2 -4 23 -6 46 -4 32 3
38 7 30 17 -9 11 5 23 67 59 42 25 83 46 90 46 10 0 13 -163 13 -815 l0 -815
-105 0 c-89 0 -104 2 -99 15 8 19 -9 19 -46 0 -38 -19 -38 -31 0 -50 37 -19
54 -19 46 0 -5 13 10 15 99 15 l105 0 0 -3385 0 -3385 -565 0 -565 0 0 5600 0
5600 130 0 130 0 0 130 0 130 435 0 435 0 -2 -842z m354 780 c2 -12 9 -23 17
-26 8 -3 11 0 8 6 -4 5 0 15 8 22 12 10 15 10 15 -2 0 -8 -5 -19 -12 -26 -8
-8 -8 -15 2 -27 12 -15 14 -15 22 -1 5 9 16 16 23 16 18 0 20 -17 3 -23 -10
-4 -10 -7 0 -18 16 -17 15 -71 -2 -94 -11 -16 -29 -20 -88 -23 -105 -4 -150
27 -125 88 10 24 11 24 16 -15 l6 -40 84 0 c69 0 86 3 95 18 15 23 -3 51 -35
55 -31 5 -50 22 -23 22 16 0 17 2 4 10 -41 27 -100 -4 -100 -52 0 -10 -4 -18
-10 -18 -5 0 -10 13 -10 30 0 17 -7 33 -17 39 -10 5 -14 13 -10 17 4 5 16 3
27 -4 22 -14 39 3 21 21 -15 15 -14 27 4 27 8 0 15 -7 15 -16 0 -23 24 -11 28
14 2 12 10 22 17 22 7 0 15 -10 17 -22z m8448 -5673 l0 -5695 -4285 0 -4285 0
2 3373 3 3372 95 0 95 0 3 -3227 2 -3228 3980 0 3980 0 0 5230 0 5230 -3980 0
-3980 0 -2 -502 -3 -503 -97 -3 -98 -3 0 706 0 705 120 0 120 0 0 120 0 120
4165 0 4165 0 0 -5695z m-432 -172 l-3 -5208 -3955 0 -3955 0 0 3215 0 3215
34 3 c30 3 33 1 28 -17 -6 -26 3 -26 53 -1 l40 20 5 -27 c12 -60 50 -118 97
-149 117 -79 267 -37 332 93 18 37 22 144 5 175 -14 26 -6 33 22 18 20 -11 21
-10 16 9 -5 20 -2 21 80 21 81 0 84 -1 78 -21 -7 -20 -6 -20 24 -5 16 9 32 16
35 16 3 0 7 -937 8 -2082 2 -1654 6 -2082 16 -2086 7 -2 12 6 12 23 0 20 4 26
15 21 8 -3 22 -9 31 -13 13 -5 15 -2 9 15 -6 20 -3 22 40 22 37 0 46 -3 42
-15 -4 -8 -2 -17 3 -20 6 -4 10 -280 10 -728 0 -397 4 -716 9 -709 6 10 10 10
21 -3 11 -13 70 -15 475 -15 l464 0 20 26 c20 25 21 39 21 231 0 203 0 204
-25 228 l-24 25 -453 0 c-394 0 -456 -2 -476 -16 l-22 -15 0 490 0 490 30 16
c17 9 30 18 30 20 0 2 -13 11 -30 20 l-30 16 0 184 0 185 105 0 c63 0 105 4
105 10 0 6 14 10 30 10 l30 0 0 124 c0 90 3 126 13 129 6 3 -57 6 -140 6
l-153 1 0 -319 c0 -193 -4 -322 -10 -326 -5 -3 -7 -12 -3 -20 4 -12 -5 -15
-42 -15 -43 0 -46 2 -40 22 6 17 4 20 -9 15 -9 -4 -23 -10 -31 -13 -13 -5 -15
87 -15 795 0 790 0 802 19 791 31 -16 43 -12 36 10 -6 20 -3 21 77 18 73 -3
83 -5 80 -20 -2 -10 2 -18 8 -18 6 0 10 -46 10 -128 0 -86 4 -132 12 -140 9
-9 9 -12 -2 -13 -8 -1 -4 -5 10 -9 30 -10 939 -11 960 -2 8 4 17 14 20 22 3 8
6 108 8 221 l3 207 -31 26 -32 26 -439 0 c-367 0 -445 -2 -468 -15 -32 -16
-41 -33 -41 -76 0 -16 -5 -29 -11 -29 -6 0 -9 -9 -6 -20 5 -19 0 -20 -80 -20
-81 0 -84 1 -78 21 6 18 5 19 -13 10 -12 -6 -25 -11 -31 -11 -8 0 -11 382 -11
1285 l0 1285 1528 -2 1527 -3 6 -50 6 -50 1 52 2 53 1557 0 c856 0 1559 2
1561 5 3 3 -697 5 -1556 5 l-1562 0 0 100 0 100 180 0 c113 0 180 4 180 10 0
7 -162 10 -465 10 -303 0 -465 -3 -465 -10 0 -6 100 -10 280 -10 l280 0 0
-100 0 -100 -1530 0 -1530 0 0 201 c0 175 2 200 15 195 8 -3 22 -9 31 -13 13
-5 15 -2 9 15 -6 21 -4 22 77 22 l84 0 3 -117 c3 -126 16 -167 55 -177 28 -8
885 -7 912 0 12 3 27 17 33 30 12 28 16 422 3 440 -4 5 -18 18 -32 27 -22 15
-67 17 -458 17 -531 0 -507 6 -514 -138 l-3 -72 -83 0 c-80 0 -83 1 -77 21 4
12 3 20 -1 18 -5 -2 -26 -11 -46 -19 l-38 -14 0 -279 c0 -262 -1 -279 -17
-272 -48 19 -56 19 -48 -4 6 -21 5 -22 -77 -19 -73 3 -83 5 -80 21 4 21 1 21
-42 1 -34 -17 -34 -16 -76 17 -41 33 -45 34 -129 34 -81 0 -91 -2 -130 -29
-47 -33 -85 -92 -95 -148 -4 -21 -9 -38 -11 -38 -3 0 -22 9 -43 20 l-37 20 -3
-20 c-3 -17 -10 -21 -35 -18 l-32 3 -3 943 -2 942 44 28 c25 15 97 56 161 91
64 35 114 66 111 68 -3 3 -72 -33 -155 -80 -82 -46 -152 -82 -155 -79 -4 3 -6
241 -6 529 l0 523 1810 0 c1604 0 1809 -2 1804 -15 -4 -8 -1 -15 5 -15 13 0
71 28 71 34 0 6 -65 46 -74 46 -3 0 -6 -9 -6 -20 0 -20 -4 -20 -1802 -18
l-1803 3 -3 353 -2 352 135 0 135 0 0 128 c0 86 4 132 12 140 9 9 873 12 3825
12 l3813 0 -2 -5207z m-8208 3600 c0 -335 -4 -613 -8 -619 -10 -15 -120 -73
-127 -66 -3 3 -5 295 -5 649 l0 643 70 0 70 0 0 -607z m270 70 l-1 -538 -94
-52 c-51 -29 -96 -53 -99 -53 -3 0 -6 266 -6 590 l0 590 100 0 100 0 0 -537z
m0 -1493 l0 -940 -100 0 -100 0 2 886 3 887 95 53 c52 30 96 54 98 54 1 0 2
-423 2 -940z m-270 -80 l0 -860 -70 0 -70 0 2 827 3 828 55 32 c30 18 60 33
67 33 11 0 13 -163 13 -860z m2378 24 c22 -15 22 -20 22 -221 0 -178 -2 -209
-17 -225 -15 -17 -43 -18 -471 -18 -410 0 -457 2 -474 17 -15 14 -18 32 -18
128 l0 113 30 12 31 13 -31 18 c-28 18 -30 22 -30 81 0 106 -37 98 484 98 393
0 454 -2 474 -16z m-1776 -750 c16 -16 18 -16 24 0 8 21 24 20 40 -1 12 -17
14 -17 28 2 16 20 16 20 31 1 15 -19 15 -19 28 -1 8 10 19 15 25 11 17 -10 15
-61 -3 -76 -11 -9 -15 -32 -15 -80 0 -48 4 -71 15 -80 8 -7 15 -19 15 -26 0
-11 -23 -14 -111 -14 -111 0 -111 0 -104 23 14 39 18 158 6 170 -12 12 -15 87
-4 87 3 0 15 -7 25 -16z m1767 -2319 c16 -8 31 -22 35 -30 3 -9 6 -103 6 -209
0 -183 -1 -194 -21 -212 -20 -18 -43 -19 -474 -19 -431 0 -454 1 -474 19 -19
18 -21 30 -21 148 0 127 0 129 25 140 14 6 25 15 25 20 0 5 -11 14 -25 20 -36
16 -36 79 1 113 l27 25 434 0 c361 0 439 -2 462 -15z m-843 -1165 c7 -14 17
-36 24 -50 6 -14 10 -53 8 -85 l-3 -60 -77 -3 -78 -3 0 70 c0 38 5 73 10 76 6
3 10 17 10 30 0 56 82 76 106 25z m781 -1642 c23 -21 23 -25 23 -220 0 -198 0
-199 -25 -223 l-24 -25 -446 0 -446 0 -24 25 c-25 24 -25 25 -25 218 0 181 1
196 21 221 l20 26 452 0 c449 0 451 0 474 -22z"/>
<path d="M751 10430 c-26 -44 -27 -60 -1 -53 20 5 20 0 20 -791 0 -792 0 -796
-20 -796 l-20 0 20 -40 c11 -22 24 -40 28 -40 7 0 42 63 42 75 0 3 -9 5 -20 5
-20 0 -20 7 -20 795 0 686 2 795 14 793 20 -4 19 6 -3 49 l-19 37 -21 -34z"/>
<path d="M730 8688 c-52 -14 -100 -55 -121 -102 -13 -30 -30 -48 -66 -67 -76
-41 -114 -114 -99 -193 14 -73 90 -146 151 -146 29 0 34 -5 49 -45 20 -51 62
-90 107 -100 31 -7 33 -12 14 -59 -7 -15 -5 -17 11 -12 18 6 19 -5 23 -298 l3
-305 -21 6 c-12 3 -21 3 -21 0 0 -8 41 -77 46 -77 2 0 13 19 25 41 l21 42 -21
-6 -22 -5 1 304 c1 182 5 302 11 299 5 -4 9 -24 9 -46 0 -21 5 -39 10 -39 6 0
10 14 10 30 0 42 27 40 33 -2 4 -27 4 -25 3 7 -1 32 -5 40 -19 40 -19 0 -46
38 -47 65 0 8 18 22 39 31 28 12 46 29 60 58 15 28 28 41 42 41 33 0 98 41
119 75 34 56 42 106 24 159 -19 55 -65 105 -105 113 -24 4 -31 13 -40 47 -27
103 -135 171 -229 144z m103 -42 c52 -22 89 -68 94 -120 5 -41 8 -46 37 -51
47 -10 74 -31 96 -75 25 -48 25 -83 1 -136 -19 -42 -81 -90 -104 -81 -7 3 -18
22 -25 44 -6 21 -25 52 -42 68 -24 23 -41 30 -88 33 -75 5 -113 -13 -148 -74
-25 -43 -29 -46 -60 -41 -47 8 -80 35 -105 84 -49 100 20 203 136 203 39 0 51
-5 91 -42 34 -31 48 -38 56 -30 16 16 -69 98 -111 107 -38 8 -39 24 -4 66 47
55 113 72 176 45z m-33 -351 c0 -16 6 -25 15 -25 18 0 19 12 3 28 -9 9 -9 12
3 12 22 0 87 -61 72 -67 -22 -8 -15 -43 7 -43 11 0 20 -7 20 -15 0 -8 -9 -15
-20 -15 -22 0 -29 -35 -7 -43 8 -2 0 -16 -21 -38 -28 -29 -40 -34 -80 -34 -37
0 -55 6 -84 30 -41 32 -47 45 -23 45 24 0 17 30 -10 40 -14 5 -25 12 -25 15 0
3 11 10 25 15 27 10 35 40 10 40 -9 0 -12 6 -9 15 4 8 12 15 20 15 7 0 17 7
22 15 7 13 46 31 75 34 4 1 7 -10 7 -24z"/>
<path d="M5712 9656 c-2 -120 -4 -137 -17 -126 -8 6 -19 9 -24 6 -5 -4 -14 2
-20 11 -8 14 -10 5 -11 -41 l0 -58 35 4 35 4 0 -63 0 -63 -267 -3 c-148 -1
-25 -3 272 -4 297 -1 535 1 529 3 -6 3 -125 6 -265 7 l-254 2 -5 230 c-5 185
-6 203 -8 91z"/>
<path d="M2910 9550 l0 -140 140 0 140 0 0 140 0 140 -140 0 -140 0 0 -140z
m175 104 c17 -11 25 -26 25 -45 0 -16 5 -29 10 -29 6 0 10 -32 10 -75 l0 -76
-77 3 -78 3 -3 64 c-2 36 2 69 7 74 6 6 11 18 11 28 0 22 38 69 56 69 8 0 26
-7 39 -16z"/>
<path d="M6250 9540 l0 -140 140 0 140 0 0 140 0 140 -140 0 -140 0 0 -140z
m184 94 c9 -8 16 -24 16 -35 0 -11 7 -27 15 -35 16 -17 21 -109 6 -132 -5 -9
-29 -12 -82 -10 l-74 3 -3 64 c-2 36 2 69 7 74 6 6 11 20 11 31 0 48 70 75
104 40z"/>
<path d="M7599 7971 c-24 -19 -24 -23 -27 -221 -3 -169 -1 -206 12 -226 9 -13
16 -26 16 -29 0 -2 -305 -6 -677 -8 -431 -1 -252 -3 490 -5 l1167 -2 0 170 c0
112 4 170 10 170 6 0 25 -7 42 -16 30 -16 31 -15 25 5 -5 20 -2 21 78 21 79 0
83 -1 78 -21 l-6 -21 42 21 41 21 0 -2355 c0 -2087 2 -2355 15 -2355 13 0 15
201 15 1746 l0 1746 22 -5 c26 -7 58 8 58 28 0 8 -14 22 -31 31 -22 11 -28 19
-21 26 8 8 16 7 28 -3 15 -12 17 -12 12 1 -3 10 -17 14 -37 14 l-31 -2 0 599
c0 526 -2 599 -15 599 -9 0 -15 -9 -15 -25 0 -25 -1 -25 -30 -10 -37 19 -54
19 -46 0 4 -13 -8 -15 -79 -15 -75 0 -84 2 -78 17 7 17 8 17 -57 -3 -18 -6
-20 -2 -20 52 0 31 -3 54 -6 51 -4 -3 -16 0 -28 8 -17 13 -92 15 -472 15 -430
0 -453 -1 -475 -19z m951 -11 c19 -19 20 -33 20 -224 l0 -205 -26 -20 c-26
-21 -37 -21 -470 -21 -429 0 -445 1 -464 20 -29 29 -32 50 -28 249 3 178 4
183 27 202 22 18 45 19 472 19 436 0 450 -1 469 -20z"/>
<path d="M9120 7229 c-74 -30 -132 -123 -132 -209 0 -181 199 -287 350 -186
127 85 129 279 4 370 -39 27 -53 31 -120 33 -43 2 -88 -2 -102 -8z m19 -76 c9
-17 11 -17 25 2 16 20 16 20 31 1 15 -20 15 -20 29 -1 14 19 15 19 34 2 17
-16 20 -16 25 -2 4 8 13 15 22 15 18 0 22 -69 4 -87 -12 -12 -8 -131 6 -170 7
-23 7 -23 -104 -23 -118 0 -127 5 -96 46 19 25 20 124 0 150 -8 10 -15 31 -15
45 0 41 21 53 39 22z"/>
<path d="M5742 6608 c-2 -126 -11 -172 -26 -132 -4 10 -16 14 -33 12 -27 -3
-28 -6 -31 -60 -2 -36 1 -58 8 -58 5 0 10 7 10 15 0 8 9 15 20 15 11 0 23 7
26 15 13 33 24 0 24 -71 l0 -74 -290 0 c-187 0 -290 -4 -290 -10 0 -7 188 -10
545 -10 357 0 545 3 545 10 0 6 -90 10 -250 10 l-250 0 -3 238 c-1 138 -3 180
-5 100z"/>
<path d="M6250 6518 l0 -143 139 3 140 3 3 140 3 139 -142 0 -143 0 0 -142z
m184 96 c9 -8 16 -26 16 -38 0 -13 7 -29 15 -36 16 -14 21 -105 6 -128 -5 -9
-29 -12 -82 -10 l-74 3 -3 64 c-2 36 2 69 7 74 6 6 11 20 11 31 0 48 70 75
104 40z"/>
<path d="M2910 6500 l0 -140 140 0 140 0 0 135 0 135 983 3 982 2 -1122 3
-1123 2 0 -140z m182 93 c10 -9 18 -26 18 -39 0 -13 5 -26 10 -29 6 -3 10 -38
10 -76 l0 -70 -77 3 -78 3 -3 64 c-2 36 2 69 7 74 6 6 11 18 11 27 0 50 64 78
102 43z"/>
<path d="M7618 4914 c-15 -8 -32 -23 -38 -34 -6 -11 -10 -99 -10 -212 0 -165
2 -197 17 -218 9 -14 22 -28 27 -32 6 -4 213 -8 459 -8 541 0 507 -8 507 113
l0 79 26 -6 c22 -6 25 -4 19 14 -6 19 -2 20 78 20 81 0 85 -1 80 -21 l-6 -21
42 21 c22 12 41 23 41 25 0 6 -66 46 -75 46 -4 0 -5 -9 -2 -20 5 -19 0 -20
-80 -20 -80 0 -84 1 -78 20 6 18 3 20 -19 14 l-26 -6 0 114 0 114 -35 17 c-32
15 -83 17 -468 17 -362 -1 -436 -3 -459 -16z m932 -24 c17 -17 20 -33 20 -126
0 -90 -3 -109 -17 -120 -17 -12 -17 -13 0 -19 14 -6 17 -20 17 -81 0 -123 40
-114 -493 -114 -449 0 -454 0 -473 21 -17 19 -19 38 -19 219 0 181 2 200 19
219 19 21 24 21 473 21 440 0 454 -1 473 -20z"/>
<path d="M5625 4470 c-395 -4 -429 -6 -192 -8 l287 -2 0 -150 c0 -93 4 -150
10 -150 6 0 10 57 10 150 l0 150 263 2 c144 2 226 5 182 8 -44 3 -296 3 -560
0z"/>
<path d="M6250 3610 l0 -140 140 0 140 0 0 140 0 140 -140 0 -140 0 0 -140z
m188 92 c6 -9 12 -24 12 -35 0 -10 7 -25 15 -33 16 -17 21 -109 6 -132 -5 -9
-29 -12 -82 -10 l-74 3 -3 64 c-2 36 2 69 7 74 6 6 11 21 11 32 0 22 23 49 50
57 20 7 42 -1 58 -20z"/>
<path d="M8562 3475 c-1 -154 -2 -529 -2 -833 l0 -553 -22 15 c-20 14 -80 16
-476 16 l-453 0 -24 -25 c-25 -24 -25 -25 -25 -227 0 -168 3 -207 16 -226 l15
-22 -90 0 -91 0 0 209 c0 114 3 229 6 253 5 39 9 45 26 40 19 -5 19 -4 -1 37
-12 22 -25 41 -29 41 -8 0 -42 -63 -42 -76 0 -4 7 -4 15 0 13 5 15 -24 15
-227 0 -128 -3 -242 -6 -254 l-6 -23 -572 -3 -571 -2 573 -3 572 -2 0 -51 c0
-43 -3 -50 -16 -45 -17 6 -17 7 2 -52 4 -14 -4 -20 -38 -30 -116 -35 -196
-145 -197 -272 0 -112 51 -197 151 -250 140 -75 301 -23 377 120 29 54 34 73
34 130 0 140 -91 251 -231 281 -44 9 -52 14 -47 27 18 43 17 51 -4 45 -18 -4
-21 -1 -21 23 0 16 3 39 6 52 l6 22 579 0 579 0 0 780 c0 672 2 780 14 780 8
0 18 -4 21 -10 3 -5 13 -10 21 -10 11 0 13 6 9 20 -6 19 -2 20 80 20 82 0 86
-1 80 -20 -3 -11 -4 -20 0 -20 10 0 87 41 83 44 -1 2 -23 14 -47 26 l-44 22 6
-21 c5 -20 1 -21 -80 -21 -81 0 -84 1 -78 21 7 20 6 20 -24 5 -16 -9 -32 -16
-35 -16 -3 0 -7 123 -9 273 l-2 272 -3 -280z m-23 -1391 c20 -25 21 -40 21
-222 0 -187 -1 -197 -22 -219 l-21 -23 -449 0 -449 0 -24 25 c-25 24 -25 25
-25 220 0 195 0 196 25 220 l24 25 450 0 450 0 20 -26z m-1061 -711 c26 -15
50 -32 55 -38 4 -5 6 -38 5 -72 l-3 -62 37 -17 c65 -29 78 -48 78 -112 0 -66
-3 -71 -53 -100 -49 -28 -69 -28 -127 5 l-47 26 -48 -26 c-59 -33 -77 -34
-132 -1 l-44 25 3 72 3 71 52 31 53 30 0 60 c0 33 4 65 8 70 8 12 93 64 105
65 5 0 29 -12 55 -27z"/>
<path d="M3896 1474 c-72 -23 -150 -104 -172 -179 -55 -190 71 -368 261 -369
93 -1 151 22 207 82 61 65 81 122 76 214 -4 84 -23 128 -76 183 -71 73 -193
102 -296 69z m194 -84 c16 -16 20 -34 20 -80 l0 -60 55 -35 55 -36 0 -64 0
-65 -42 -27 c-24 -14 -52 -27 -63 -28 -21 -2 -115 45 -115 57 0 4 -22 -8 -50
-26 -57 -38 -72 -39 -134 -5 l-46 24 0 72 0 71 55 31 55 31 0 58 c0 67 9 82
69 116 l45 25 38 -20 c21 -11 48 -29 58 -39z"/>
</g>
</svg>
